<?xml version="1.0" standalone="no"?><!DOCTYPE svg PUBLIC "-//W3C//DTD SVG 1.1//EN" "http://www.w3.org/Graphics/SVG/1.1/DTD/svg11.dtd"><svg t="1650537579813" class="icon" viewBox="0 0 1024 1024" version="1.1" xmlns="http://www.w3.org/2000/svg" p-id="7498" xmlns:xlink="http://www.w3.org/1999/xlink" width="128" height="128"><defs><style type="text/css"></style></defs><path d="M965.568 868.608a287.36 287.36 0 0 0-103.328-64.16c-13.504 38.08-26.752 76.192-39.68 114.368-0.224 0.736-1.28 1.184-2.336 1.024a1736.064 1736.064 0 0 0-55.776-8.864l-1.92 20.064c49.536 3.136 91.968 27.2 116.928 60.352 0.736 0.864 1.952 0.832 2.336-0.128a304.544 304.544 0 0 0 6.56-108.224c0-0.32 0.32-0.64 0.864-0.736a242.912 242.912 0 0 1 76.48-10.912c1.472 0.128 1.408-1.312-0.128-2.784M261.344 931.04c-49.6 3.136-91.936 27.2-116.896 60.352-0.8 0.864-2.016 0.832-2.368-0.128a304.288 304.288 0 0 1-6.56-108.224c-0.032-0.32-0.32-0.64-0.864-0.736a242.912 242.912 0 0 0-76.448-10.912c-1.472 0.128-1.472-1.312 0.096-2.784a287.424 287.424 0 0 1 103.264-64.16c13.536 38.08 26.752 76.192 39.712 114.368 0.224 0.736 1.28 1.184 2.336 1.024 0.16-0.064 31.872-5.632 55.84-8.864l1.888 20.064" fill="#3DAD55" p-id="7499"></path><path d="M273.472 218.56c1.568 9.504 0.576 15.488-5.856 21.984a19.776 19.776 0 0 1-15.104 6.336 23.04 23.04 0 0 1-15.904-7.264A22.72 22.72 0 0 1 229.184 224a19.584 19.584 0 0 1 5.76-15.136c5.824-5.952 10.688-6.72 18.848-6.336l-0.448-19.072a40.352 40.352 0 0 0-32.768 12.8 40.32 40.32 0 0 0-12.224 29.664c0.16 11.104 4.8 21.664 12.96 29.248 7.744 8.032 18.4 12.64 29.536 12.736a39.36 39.36 0 0 0 29.216-12.736c10.304-10.496 14.4-22.496 12.384-35.808l-18.976-0.8m46.464-21.408l-7.424-11.776 31.072-19.52-9.504-15.136-31.072 19.648-6.592-10.464 32.736-20.704-9.92-15.68L267.52 156.16l43.328 68.672 51.712-32.64-9.92-15.68-32.704 20.64m69.248-61.856l-9.408 3.2-6.208-18.048 9.44-3.2c9.184-3.168 14.048-1.92 16.128 4.256 2.176 6.24-1.184 10.784-9.92 13.76z m29.984-20.416c-5.856-17.12-20.96-22.496-40.96-15.584l-30.56 10.464 26.304 76.8 19.936-6.848-8.16-23.744 7.904-2.688 22.272 18.88 22.912-7.84-25.728-21.76c7.776-7.68 9.792-16.832 6.112-27.68H419.2z m74.848-38.624l-64.736 7.808 2.208 18.368 21.856-2.624 7.488 62.176 21.088-2.528-7.52-62.176 21.824-2.624-2.176-18.4m26.144 82.144l21.024 1.152 4.48-81.088-21.056-1.12-4.48 81.056m112.64-44.64l4.384-18.016-55.648-13.44-19.072 78.944 20.512 4.928 6.976-29.024 32.576 7.872 4.16-17.376-32.544-7.84 3.52-14.528 35.136 8.48m33.12-6.528l-32.544 74.4 19.328 8.416 32.512-74.368-19.296-8.448m34.24 88.352l7.872-11.456 30.336 20.64 10.048-14.752-30.336-20.64 6.976-10.24 31.936 21.76 10.496-15.328-50.56-34.432-45.728 67.104 50.56 34.432 10.464-15.296-32.032-21.76m96.48 55.68c-11.2 10.112-22.432 8.928-33.792-3.648l-3.776-4.16 32.704-29.664 3.712 4.16c11.456 12.608 11.808 23.68 1.152 33.344z m28.352-15.776a51.52 51.52 0 0 0-13.952-28l-19.68-21.76-60.224 54.528 19.68 21.728c14.72 16.192 37.184 25.696 60.032 5.024 10.912-9.888 15.552-21.12 14.08-31.52h0.064z" fill="#0A0B09" p-id="7500"></path><path d="M557.088 304.608l-6.016-1.664" fill="#DB382A" p-id="7501"></path><path d="M822.528 918.816c12.48-36.8 26.688-77.664 39.712-114.368 6.272 2.304 12.48 4.8 18.592 7.424l1.44 0.608-59.744 106.336" fill="#0EA248" p-id="7502"></path><path d="M142.912 815.616l2.784-1.408c-0.96 0.448-1.856 0.928-2.784 1.408" fill="#79C08D" p-id="7503"></path><path d="M201.216 918.72l-59.648-106.24c6.592-2.88 13.248-5.536 20-8 12.96 36.576 27.104 77.376 39.584 114.08v0.096" fill="#0EA248" p-id="7504"></path><path d="M762.624 970.976l5.888-60-6.016 60m63.232-31.04l-1.696-0.256 1.696 0.288" fill="#309E53" p-id="7505"></path><path d="M762.56 931.04l1.856-20.064a1810.88 1810.88 0 0 1 55.776 8.864h0.32l-58.016 11.2M261.344 931.04l-58.048-11.2h0.256c18.56-3.2 37.216-6.176 55.872-8.864l0.704 7.36 0.608 6.4 0.416 4.544 0.192 1.76" fill="#129346" p-id="7506"></path><path d="M816.864 740.608c-4.352-0.704-8.8-1.28-13.248-1.952a298.656 298.656 0 0 0 71.36-186.56 299.296 299.296 0 0 1-58.048 188.512m-614.88 0.736a297.856 297.856 0 0 1-53.824-155.2c-0.736-11.776-0.96-23.552-0.704-35.36 0.128 5.504 0.352 11.04 0.704 16.576 4.224 67.84 28.704 125.696 66.624 172.064l-12.8 1.92" fill="#ADADAA" p-id="7507"></path><path d="M575.872 853.248c2.976 3.52 6.08 5.536 9.152 5.984l-9.152-5.984M175.296 745.6a431.04 431.04 0 0 1-97.664-274.176c0-114.624 44.928-220.608 126.624-298.432C285.216 96 394.24 53.472 511.232 53.472c117.056 0 226.048 42.496 306.976 119.552 81.696 77.824 126.656 183.808 126.656 298.496a431.136 431.136 0 0 1-97.504 273.92c7.488 1.248 14.944 2.496 22.368 3.84a451.52 451.52 0 0 0 95.104-277.76c0-250.496-203.072-437.952-453.6-437.952-250.464 0-453.536 187.392-453.536 437.952 0 104.768 35.552 201.184 95.232 277.984l22.368-3.872m653.76 45.696h-2.464v-5.984h2.464c2.304 0 3.52 0.992 3.52 2.88 0 2.112-1.216 3.104-3.52 3.104" fill="#E3662A" p-id="7508"></path><path d="M829.056 785.344h-2.464v5.984h2.464c2.304 0 3.52-1.088 3.52-3.104 0-1.888-1.216-2.88-3.52-2.88m-516.704 28.192a10.784 10.784 0 0 0-8.736 4.544 19.104 19.104 0 0 0-3.744 11.424c0 9.152 5.888 15.84 12.48 15.84 6.848 0 12.512-6.4 12.512-15.84a19.04 19.04 0 0 0-3.712-11.52 10.688 10.688 0 0 0-8.8-4.48m406.976-4.48c-5.344-0.288-10.048 4.736-11.04 11.776h21.664c-0.48-6.72-4.096-11.776-10.624-11.776" fill="#128843" p-id="7509"></path><path d="M847.456 815.04l-5.28-7.456h-3.744v7.424h-7.52v-26.88h12.48c6.592 0 11.776 3.104 11.776 9.504a8.864 8.864 0 0 1-5.696 8.832l6.496 8.544h-8.512z m-5.408-34.752a20.8 20.8 0 0 0-15.392 6.432 21.216 21.216 0 0 0-6.304 15.552c0 6.08 2.112 11.264 6.304 15.456a20.992 20.992 0 0 0 15.392 6.176 21.312 21.312 0 0 0 15.584-6.176 20.64 20.64 0 0 0 6.368-15.456 20.928 20.928 0 0 0-6.4-15.552 20.864 20.864 0 0 0-15.552-6.432z m-427.84-32.096c3.744-0.064 5.664 10.912 15.264 10.4 4.256-0.224 6.528-5.6 4.352-9.28v-0.064c-1.92-3.136-4.896-4.352-8.288-4.928-2.304-0.448-4.672-0.64-6.848-1.76-1.12-0.544-1.824-1.44-1.824-2.784 0-1.376 0.544-2.432 1.824-3.04 1.824-0.96 3.84-0.896 5.856-0.896a5.312 5.312 0 0 0 3.744-1.376 7.84 7.84 0 0 0 1.28-9.184c-1.92-3.648-6.176-4.096-9.216-2.176-2.144 1.312-2.88 3.52-3.52 5.76-0.32 1.6-1.28 4.064-4.512 3.936-2.432-0.096-3.744-2.56-3.328-4.928 0.448-2.048 1.152-3.936 1.44-5.984 0.32-2.304-0.032-4.448-1.856-6.08a6.08 6.08 0 0 0-4.8-1.568s-4.672 0.192-6.24 4.288c-1.984 5.024 1.216 6.592 3.488 8.416 1.28 1.056 2.624 2.112 3.04 3.808 0.384 1.28 0.096 2.656-0.896 3.328-1.312 0.864-3.36 0.672-4.864-0.576-1.728-1.44-2.24-4.928-5.664-6.24-2.784-1.088-6.464-0.096-7.712 2.4-1.664 3.36 0.416 6.464 4.096 7.904 1.984 0.864 8.768 1.12 8.416 4.512-0.32 2.976-6.4 0.64-9.152 1.664a5.984 5.984 0 0 0-3.584 8.128c1.44 3.136 5.344 4.16 8.192 2.848 3.136-1.408 5.792-7.872 9.088-6.208 3.136 1.568 0.064 5.248-0.096 8.864-0.128 3.2 2.144 6.304 7.52 5.792 3.264-0.32 6.016-4.224 4.16-7.68a21.568 21.568 0 0 1-1.696-3.616c-0.544-1.952 0.704-3.616 2.336-3.68m93.6 59.936a11.04 11.04 0 0 0-8.576 3.552 11.68 11.68 0 0 0-2.816 7.84c0 7.456 5.696 11.328 11.392 11.328a11.2 11.2 0 0 0 8.544-3.52 11.68 11.68 0 0 0 2.816-7.872 11.008 11.008 0 0 0-11.328-11.328" fill="#128843" p-id="7510"></path><path d="M835.328 795.584a10.4 10.4 0 0 1-17.76-7.456 10.4 10.4 0 1 1 20.8 0c0.032 2.784-1.056 5.44-3.04 7.424v0.032z m-26.752 53.504c-6.208 4.832-13.952 7.296-21.824 6.976-11.552 0-20.928-2.432-29.312-7.936l-1.6-1.088 10.944-18.016c12.544 8 19.008 6.816 21.504 6.624 5.44-0.448 6.016-6.4 1.536-6.336-3.52 0.096-10.24 0.8-20.384-3.904-7.072-4.32-11.648-9.344-11.648-17.632 0-7.2 2.976-13.12 8.864-17.472a31.776 31.776 0 0 1 19.104-6.976c10.464-0.448 18.016 1.792 27.392 6.624l1.984 1.312-9.952 16.416c-10.912-4.352-16.576-5.536-20.512-4.8-4.672 0.864-4.032 5.376-0.576 5.856 3.392 0.416 8.864-1.024 19.168 2.624 8.96 3.552 14.208 9.376 14.208 19.264a22.72 22.72 0 0 1-8.896 18.464z m-54.688-23.872h-45.6c1.28 5.504 7.36 8.608 13.024 8.608 6.624 0 11.52-0.864 15.008-5.44l16.64 15.68c-9.152 9.696-20.576 11.616-31.392 11.616a38.4 38.4 0 0 1-26.624-9.6c-7.04-6.336-10.592-15.104-10.592-26.08 0-10.88 3.2-19.648 9.856-26.4 6.72-6.944 16.064-10.688 25.696-10.304 10.88 0 19.328 3.392 25.216 10.304 5.952 6.912 8.928 15.264 8.928 25.12l-0.16 6.496z m-103.392 28.896c-19.488 4.704-41.12-3.808-46.08-24.448a31.648 31.648 0 0 1 14.72-35.84c-4.992 0.416-8.064 0.16-11.072 1.152-0.32 0.128-0.64-0.224-0.48-0.576 3.232-6.144 10.752-9.152 16.064-7.104l-6.464-5.664 4.928-4.096 5.44 8.064c3.072-6.752 10.56-8.64 14.496-4.928 0.288 0.224 0.16 0.608-0.192 0.64-2.624 0.448-3.584 3.168-3.36 4.992l2.24-0.32c18.656-2.4 34.656 6.912 39.168 25.504 4.96 20.64-9.952 37.952-29.44 42.624z m-51.52 0.224l-1.6 0.064c-2.752 0.096-6.464 0.288-10.336 0.288-18.24 0-28.704-9.184-28.704-26.944v-18.976h-7.136v-23.68h7.136v-18.784h27.2v18.784h10.784v23.68H585.6v17.248c0 3.296 1.44 4.8 4.8 4.8h8.576v23.552l0.064-0.032z m-52.992-0.544h-26.4v-7.712l-1.696 1.824a23.2 23.2 0 0 1-17.28 7.776 28.64 28.64 0 0 1-14.208-4.064c-10.24-5.92-16.384-17.984-16.384-32.192 0-14.144 6.144-26.176 16.384-32.064a28.544 28.544 0 0 1 14.144-4.064 23.136 23.136 0 0 1 17.344 8l1.728 1.856v-7.904h26.368v68.544z m-80.576 0.096h-27.648v-37.344c0-5.856-2.496-8.832-7.424-8.832-4.928 0-5.92 3.072-6.24 4.128a26.496 26.496 0 0 0-0.992 8.448v33.6h-27.296v-37.344c0-5.856-2.56-8.832-7.584-8.832-2.88 0-4.704 1.408-5.44 2.56a11.616 11.616 0 0 0-1.152 3.168c-0.512 2.848-0.512 3.84-0.512 6.848v33.6h-26.496v-68.8h26.24v6.432c1.824-3.744 8.96-8.224 18.88-8.224 8.224 0 14.752 2.816 18.88 8.16l0.768 0.96 0.768-0.928a23.04 23.04 0 0 1 19.04-8c7.84 0 26.24 2.976 26.24 30.656v39.744z m-152.544 1.792c-19.968 0-38.208-12.448-38.208-36.224 0-18.88 11.2-30.624 26.304-34.656a47.04 47.04 0 0 1 22.464-0.32c15.712 3.648 26.624 15.52 26.624 35.04 0 23.712-17.184 36.192-37.184 36.192v-0.032z m-52.544-1.76h-26.56v-64.224h-23.392v-26.144h73.28v26.144h-23.328V853.92z m618.56-103.04a2030.08 2030.08 0 0 0-184.448-24.96c0.32 2.432 0.576 4.992 0.576 7.744v39.68h-27.52v-37.408c0-5.76-2.432-8.736-7.36-8.736-5.12 0-8.32 2.208-8.32 13.024v33.12h-27.456v-52.48l-4.672-0.224 0.096 1.984-0.128 6.56h-45.6c1.28 5.44 7.328 8.576 12.992 8.576 6.624 0 11.52-0.864 15.008-5.472l16.64 15.68c-9.12 9.76-20.608 11.68-31.36 11.68a38.4 38.4 0 0 1-26.688-9.6c-7.072-6.4-10.592-15.104-10.592-26.112 0-2.016 0.16-3.936 0.384-5.76l-5.44-0.096v10.176h-10.72v17.248c0 3.296 1.44 4.736 4.8 4.736h8.608v23.584h-1.6a172.8 172.8 0 0 1-10.304 0.32c-18.24 0-28.736-9.184-28.736-26.88v-19.008h-7.104v-10.432l-5.248 0.096v10.304h-10.752v17.184c0 3.36 1.44 4.8 4.8 4.8h8.576v23.552h-1.568c-2.752 0.16-6.464 0.32-10.304 0.32-18.272 0-28.704-9.152-28.704-26.88v-18.976h-7.104v-9.472c-2.56 0.032-5.024 0.16-7.552 0.256 3.456 6.08 5.184 12.928 5.024 19.904 0 23.744-16.512 36.224-37.696 36.224-21.28 0-38.752-12.48-38.752-36.224 0-6.272 1.28-11.776 3.488-16.416l-5.024 0.32a27.04 27.04 0 0 1-12.96 18.048l-0.864 0.544 19.072 31.936h-30.816l-17.152-29.344h-4.576v29.344h-27.328V729.28a2025.696 2025.696 0 0 0-149.568 21.568c-1.312 0.192-2.208 1.088-1.92 1.856a8610.368 8610.368 0 0 1 58.24 166.048c0.256 0.736 1.28 1.184 2.304 0.992a1792.32 1792.32 0 0 1 616.64 0c1.088 0.192 2.08-0.256 2.336-0.992a8610.368 8610.368 0 0 1 58.24-166.048c0.256-0.768-0.64-1.664-1.92-1.856z m-310.4-500.576c26.496-2.4 84.416-1.024 112.672 26.72 1.664 1.664 0.224 5.504-2.176 4.8-41.44-11.136-106.048 43.84-147.936 8.288-1.216 10.368-10.56 60.576-82.08 53.12-1.728-0.16-2.4-2.016-1.12-3.04 11.072-9.504 24.704-35.552 12.992-52.16-36.384 24.128-55.2 25.152-122.336-3.904-2.208-0.96-0.896-4.48 1.728-5.12 13.92-3.072 47.04-15.168 76.8-20.768 5.664-1.088 11.2-1.728 16.576-1.76-30.752-7.36-44.16-13.76-64.448-13.632a2.496 2.496 0 0 1-1.728-4.288c31.744-30.528 89.28-32.064 116.928-9.376l-24.768-51.84 30.08-4.544 14.976 52.48c31.424-34.368 80-30.88 96.352-0.832 0.96 1.792-0.608 3.904-2.624 3.552-16.48-2.816-27.776 10.912-30.08 22.272h0.192" fill="#128843" p-id="7511"></path><path d="M585.088 713.44c-5.376-0.64-10.08 11.264-11.04 27.936h21.632c-0.48-15.808-4.16-27.808-10.592-27.808m-242.976 19.424c0-17.6-4.896-28.896-12.48-28.896h-7.872v60h7.872c7.936 0 12.48-11.424 12.48-31.104" fill="#DB382A" p-id="7512"></path><path d="M190.656 434.208h110.304V473.6h-66.24v21.952h61.344v38.144H234.72v54.752H190.656v-154.24z m117.984 0h61.952c40.96 0 64.448 19.712 64.448 54.08 0 20.928-8.672 36.224-25.824 45.472l32.608 54.72h-50.72l-27.392-46.08h-11.008v46.08H308.64v-154.272z m136.8 0h117.504V473.6h-70.912v17.28h67.328v38.144h-67.36v20.064h70.912v39.36H445.44v-154.24z m148.672 94.144l1.92 2.464c10.72 13.952 23.648 20.8 39.456 20.8 9.856 0 15.968-3.36 15.968-8.736 0-1.632 0-6.656-12.608-8.8l-22.976-4.224a60.096 60.096 0 0 1-32.64-16 44.48 44.48 0 0 1-12.896-32.128c0-14.848 6.016-26.976 17.824-36.16 11.808-9.056 25.984-13.696 42.208-13.696 23.904 0 43.904 9.184 59.392 27.296l1.568 1.824-28.16 30.08-1.984-2.272c-9.856-11.936-20.512-17.728-32.512-17.728-10.464 0-14.272 4.064-14.272 7.904 0 1.376 0 5.664 10.88 7.488l20.448 3.616c33.024 5.76 49.76 23.04 49.76 51.296 0.192 14.304-6.72 27.776-18.464 35.936-12.224 9.088-26.848 13.504-44.736 13.504-27.04 0-51.36-12.064-65.12-32.224l-1.28-1.824 28.224-28.416z m106.816-94.144h44.064v55.616h42.56V434.24h44.288v154.24H787.52v-56.8h-42.56v56.832h-44.064V434.24z m-406.4 295.2v-46.4h37.536c24.096 0 37.888 11.616 37.888 31.872 0 2.656-0.288 5.28-0.832 7.872l5.024-0.32a33.92 33.92 0 0 1 22.784-18.176c8.352-1.824 14.464-2.08 23.552-0.32 9.28 2.144 16.928 7.232 21.6 15.04l7.552-0.224v-14.176h7.104v-18.784h27.2v18.784h10.72v13.312h5.28v-13.28h7.104v-18.752h27.232v18.752h10.752v13.472l5.408 0.096c1.6-18.048 17.088-31.68 35.2-30.976 10.816 0 19.296 3.392 25.216 10.336 5.536 6.464 8.64 14.624 8.832 23.136l4.672 0.256v-16.224h27.2v7.936c1.824-4.16 9.856-9.92 17.792-9.92 14.048 0 22.912 8.384 25.088 23.264 36.512 3.232 72.896 7.424 109.216 12.672 48.32-57.28 76.16-131.04 70.816-216.64-8.384-133.728-86.304-214.24-198.752-249.76 1.92 1.504 3.712 3.072 5.44 4.768 1.664 1.664 0.224 5.504-2.176 4.8-41.44-11.136-106.048 43.84-147.936 8.288-1.216 10.368-10.56 60.576-82.08 53.12-1.728-0.16-2.4-2.016-1.12-3.04 11.072-9.504 24.704-35.552 12.992-52.16-36.384 24.128-55.2 25.152-122.336-3.904a1.76 1.76 0 0 1-1.056-1.536c-156.8 55.808-196.576 166.88-189.216 284.736 4.224 67.84 28.704 125.76 66.624 172.096 26.496-3.84 53.056-7.2 79.68-10.016z" fill="#DB382A" p-id="7513"></path><path d="M390.976 487.872c0-11.84-9.088-14.272-22.72-14.272h-15.552v29.632h15.552c20.352 0 22.72-8.736 22.72-15.36" fill="#DB382A" p-id="7514"></path><path d="M387.04 712.416l-2.24 1.952 2.24-1.92m-4.256 3.904l0.832-1.12-0.832 1.12m-13.664 9.76l5.984-1.92-5.984 1.92m125.6-5.696h5.856-5.568m-65.6-11.936l-5.568-1.92 5.568 1.92m12.672 13.12l5.984-0.256-5.984 0.288m102.944-0.992h5.984-5.984m-108.704-8.256l-1.664-1.12 1.664 1.12m-3.808-2.304l-5.568-2.816 5.568 2.816m-34.016-3.2l-5.6 2.24 5.6-2.24m-3.712 1.408l-4.768 2.24 4.768-2.24m40.096 2.944l-4.48-2.24 4.48 2.24m122.208-4.192l-2.24 5.024 2.24-4.768m64.032 7.68l-0.832-2.816 0.832 2.784m0.64 2.56l-0.576-1.696 0.288 1.696m170.304-503.68l-32.736 29.632 3.84 4.192c11.36 12.576 22.624 13.76 33.792 3.68 10.656-9.664 10.304-20.736-1.152-33.344l-3.744-4.16M383.04 117.216l-9.44 3.232 6.208 18.08 9.408-3.232c8.768-3.008 12.16-7.552 9.984-13.792-2.112-6.144-6.976-7.424-16.128-4.288" fill="#FAD41F" p-id="7515"></path><path d="M810.88 267.04c-22.848 20.672-45.376 11.168-60.032-5.024l-19.648-21.76 60.16-54.496 19.616 21.76c7.808 8.576 12.512 17.6 13.952 28 1.44 10.4-3.2 21.632-14.08 31.52h0.032z m-139.68-68.8l45.696-67.104 50.56 34.432-10.464 15.264-31.936-21.728-6.976 10.24 30.336 20.672-10.048 14.72-30.336-20.608-7.84 11.456 32 21.76-10.464 15.296-50.528-34.4z m-37.824-16.64l32.544-74.368 19.296 8.448-32.512 74.368-19.328-8.416z m-6.688-53.952l-4.16 17.376-32.576-7.872-6.976 29.024-20.48-4.928 19.04-78.944 55.648 13.44-4.384 18.016-35.104-8.48-3.52 14.528 32.512 7.84z m-85.44 31.872l-21.056-1.12 4.448-81.056 21.024 1.12-4.448 81.088v-0.032zM474.368 97.28l7.52 62.176-21.088 2.56-7.488-62.208-21.824 2.624-2.176-18.368 64.64-7.872 2.24 18.432-21.824 2.624v0.032z m-58.464 74.88l-22.304-18.88-7.84 2.688 8.096 23.744-19.936 6.848-26.304-76.8 30.56-10.464c20.064-6.912 35.104-1.536 40.992 15.584 3.68 10.88 1.664 19.968-6.08 27.648l25.728 21.824-22.912 7.84V172.16zM310.848 224.864L267.52 156.224l51.712-32.64 9.856 15.68-32.704 20.64 6.624 10.464 31.04-19.584 9.536 15.104-31.04 19.584 7.424 11.776 32.736-20.672 9.856 15.68-51.712 32.64z m-30.784 30.336a39.36 39.36 0 0 1-29.216 12.736 41.472 41.472 0 0 1-29.536-12.704 40.576 40.576 0 0 1-12.96-29.216 40.32 40.32 0 0 1 12.224-29.728c8.384-9.056 20.48-13.76 32.768-12.8l0.448 19.072c-8.16-0.416-13.024 0.416-18.88 6.336a19.584 19.584 0 0 0-5.696 15.136 22.72 22.72 0 0 0 7.36 15.648 23.136 23.136 0 0 0 15.936 7.232 19.776 19.776 0 0 0 15.104-6.336c6.4-6.528 7.424-12.48 5.856-21.984l18.976 0.768c2.048 13.376-2.08 25.312-12.384 35.84z m538.144-82.112c-80.96-77.12-189.92-119.616-307.008-119.616-117.024 0-226.048 42.496-306.976 119.552-81.664 77.824-126.656 183.808-126.656 298.496a431.04 431.04 0 0 0 97.6 274.08c13.216-2.208 26.432-4.256 39.68-6.112-37.952-46.432-62.4-104.32-66.656-172.16-7.36-117.824 32.416-228.928 189.216-284.736-0.16-1.376 0.96-3.2 2.72-3.552 13.984-3.104 47.136-15.2 76.8-20.8 5.696-1.088 11.264-1.728 16.64-1.76-30.752-7.36-44.16-13.76-64.448-13.632a2.496 2.496 0 0 1-1.76-4.288c31.776-30.528 89.28-32.064 116.96-9.376l-24.8-51.84 30.112-4.544 14.976 52.48c31.424-34.368 80-30.88 96.32-0.832 0.96 1.792-0.576 3.904-2.56 3.552-16.512-2.816-27.84 10.912-30.144 22.272h0.224c24.864-2.176 77.504-1.152 107.2 21.984 112.48 35.52 190.4 116.032 198.784 249.792 5.312 85.504-22.464 159.36-70.816 216.608l-1.408-0.192c15.04 2.176 30.08 4.48 45.12 6.976a431.136 431.136 0 0 0 97.472-273.92c0-114.72-44.928-220.672-126.624-298.432h0.032z" fill="#F9D320" p-id="7516"></path><path d="M693.088 746.912l-2.816-3.616 2.816 3.616m-1.216-7.36l-3.36-3.616 3.36 3.616m2.24 15.424l-2.24-3.648 2.24 3.648m-6.56-24.544l2.496 2.24-2.784-2.24m7.52 32.608l-1.376-2.816 1.376 2.816m-75.296-55.68l-5.568-5.984 5.568 6.016m0.864 23.52l-1.664-4.16 1.92 4.16m-0.736-10.944l-3.072-5.984 3.072 5.984m68.864 4.832l-6.016-4.16 6.016 4.16" fill="#FAD41F" p-id="7517"></path><path d="M833.28 793.6a7.2 7.2 0 0 1-5.376 2.24 7.2 7.2 0 0 1-5.376-2.176 7.584 7.584 0 0 1-2.176-5.536 7.68 7.68 0 0 1 2.176-5.536 7.104 7.104 0 0 1 5.376-2.304c2.144 0 3.936 0.768 5.376 2.304a7.52 7.52 0 0 1 2.176 5.536 7.424 7.424 0 0 1-2.176 5.504z m2.048-12.96a10.4 10.4 0 0 0-17.76 7.552 10.4 10.4 0 1 0 20.8-0.064 10.304 10.304 0 0 0-3.04-7.488z m-6.272 10.688h-2.464v-5.984h2.464c2.304 0 3.52 0.992 3.52 2.88 0 2.112-1.216 3.104-3.52 3.104z m3.392-4.864c0-2.24-1.792-3.392-4.096-3.392h-4.32v9.6h2.624v-2.624h1.28l1.792 2.624h2.976l-2.24-3.072a3.2 3.2 0 0 0 1.984-3.136z m-152.544 25.024c4.96 20.64-9.952 37.952-29.44 42.624-19.456 4.704-41.088-3.808-46.08-24.448a31.648 31.648 0 0 1 14.72-35.84c-4.96 0.416-8 0.16-11.04 1.152-0.32 0.128-0.64-0.224-0.48-0.576 3.232-6.144 10.752-9.152 16.064-7.104l-6.464-5.664 4.928-4.096 5.44 8.064c3.072-6.752 10.56-8.64 14.496-4.928 0.288 0.224 0.16 0.608-0.192 0.64-2.624 0.448-3.584 3.168-3.36 4.992l2.24-0.32c18.656-2.4 34.656 6.912 39.168 25.504z m-290.88-73.92c-3.616-1.44-5.76-4.544-4.096-7.872 1.28-2.528 4.928-3.52 7.744-2.432 3.36 1.28 3.936 4.8 5.632 6.24 1.504 1.28 3.52 1.376 4.864 0.576 0.96-0.64 1.28-2.08 0.96-3.328-0.544-1.696-1.856-2.752-3.072-3.808-2.304-1.824-5.504-3.392-3.52-8.416 1.568-4.096 6.176-4.288 6.176-4.288a6.08 6.08 0 0 1 4.864 1.6c1.824 1.6 2.176 3.744 1.856 6.08-0.32 2.08-1.024 3.904-1.44 5.952-0.416 2.4 0.896 4.8 3.328 4.928 3.2 0.128 4.16-2.368 4.576-3.936 0.576-2.24 1.312-4.384 3.456-5.76 3.04-1.92 7.296-1.472 9.28 2.176 1.6 3.04 1.056 6.72-1.344 9.184a5.312 5.312 0 0 1-3.744 1.344c-2.016 0-4.032 0-5.856 0.864-1.28 0.64-1.824 1.76-1.824 3.104s0.704 2.24 1.824 2.848c2.176 1.088 4.544 1.28 6.88 1.696 3.36 0.64 6.336 1.76 8.256 4.928v0.032c2.176 3.712-0.096 9.088-4.352 9.28-9.6 0.512-11.52-10.432-15.264-10.368-1.6 0-2.88 1.76-2.336 3.68 0.32 1.056 1.152 2.624 1.664 3.616 1.888 3.456-0.864 7.36-4.16 7.68-5.344 0.512-7.616-2.624-7.488-5.792 0.16-3.616 3.2-7.296 0.096-8.864-3.296-1.6-5.952 4.8-9.088 6.208-2.848 1.28-6.752 0.32-8.192-2.88a5.984 5.984 0 0 1 3.584-8.096c2.72-0.992 8.832 1.312 9.152-1.664 0.32-3.392-6.4-3.68-8.416-4.512z m20.384 37.504c21.184 0 37.696-12.416 37.696-36.16 0-19.456-10.912-31.36-26.624-35.008a51.84 51.84 0 0 0-23.552 0.352c-15.04 4.032-26.272 15.712-26.272 34.656 0 23.744 17.472 36.224 38.72 36.224v-0.064z m408.064 55.552a22.72 22.72 0 0 1-8.896 18.464c-6.208 4.832-13.952 7.296-21.824 6.976-11.552 0-20.928-2.432-29.312-7.936l-1.6-1.088 10.944-18.016c12.544 8 19.008 6.816 21.504 6.624 5.44-0.448 6.016-6.4 1.536-6.336-3.52 0.096-10.24 0.8-20.384-3.904-7.072-4.32-11.648-9.344-11.648-17.632 0-7.2 2.976-13.12 8.864-17.472a31.776 31.776 0 0 1 19.104-6.976c10.464-0.448 18.016 1.792 27.392 6.624l1.984 1.312-9.952 16.416c-10.912-4.352-16.576-5.536-20.512-4.8-4.672 0.864-4.032 5.376-0.576 5.856 3.392 0.416 8.864-1.024 19.168 2.624 8.96 3.552 14.208 9.376 14.208 19.264z m-165.632-57.28h-27.52v-68.64h27.2v7.936c1.856-4.16 9.888-9.92 17.824-9.92 16.32 0 25.664 11.264 25.664 30.944v39.68h-27.52v-37.408c0-5.76-2.432-8.736-7.36-8.736-5.12 0-8.32 2.208-8.32 13.024v33.12z m-135.488 53.984a11.04 11.04 0 0 1-8.544 3.552 11.04 11.04 0 0 1-11.392-11.36c0-2.976 0.992-5.76 2.816-7.872a11.04 11.04 0 0 1 8.576-3.52c5.664 0 11.36 3.904 11.36 11.328a11.68 11.68 0 0 1-2.816 7.872z m3.2-34.176l-1.728-1.888a23.136 23.136 0 0 0-17.28-8 28.544 28.544 0 0 0-14.144 4.096c-10.24 5.92-16.384 17.888-16.384 32.064 0 14.208 6.08 26.24 16.384 32.192 4.32 2.56 9.216 3.968 14.24 4.064 6.528 0 12.48-2.656 17.248-7.776l1.728-1.824v7.712h26.368V785.28h-26.4v7.872z m-62.816-64.96h-7.104v-23.616h7.104v-18.784h27.2v18.784h10.72v23.648h-10.72v17.184c0 3.36 1.44 4.8 4.8 4.8h8.576v23.552h-1.568c-2.752 0.16-6.464 0.32-10.304 0.32-18.272 0-28.704-9.152-28.704-26.88v-18.976z m82.304 22.08h8.64v23.552h-1.6a172.8 172.8 0 0 1-10.304 0.32c-18.24 0-28.736-9.184-28.736-26.88v-19.008h-7.104v-23.648h7.104v-18.752h27.232v18.752h10.752v23.68h-10.752v17.216c0 3.296 1.44 4.736 4.8 4.736h-0.032z m-255.328 39.424h-23.424v64.192h-26.56v-64.192h-23.392v-26.144h73.28v26.144h0.096z m306.656 41.056h8.576v23.584l-1.568 0.064c-2.752 0.096-6.464 0.288-10.336 0.288-18.24 0-28.704-9.184-28.704-26.944v-18.976h-7.136v-23.68h7.136v-18.784h27.2v18.784h10.784v23.68H585.6v17.248c0 3.296 1.44 4.8 4.8 4.8v-0.064z m-124.96-16.576v39.712h-27.648v-37.344c0-5.856-2.496-8.832-7.424-8.832-4.928 0-5.92 3.072-6.24 4.128a26.496 26.496 0 0 0-0.992 8.448v33.6h-27.296v-37.344c0-5.856-2.56-8.832-7.584-8.832-2.88 0-4.704 1.408-5.44 2.56a11.616 11.616 0 0 0-1.152 3.168c-0.512 2.848-0.512 3.84-0.512 6.848v33.6h-26.496v-68.8h26.24v6.432c1.824-3.744 8.96-8.224 18.88-8.224 8.224 0 14.752 2.816 18.88 8.16l0.768 0.96 0.768-0.928a23.04 23.04 0 0 1 19.04-8c7.84 0 26.24 2.976 26.24 30.656v0.032z m-153.056 16.288a12.192 12.192 0 0 1-12.48-11.904 12.224 12.224 0 0 1 12.48-12.064 12.16 12.16 0 0 1 12.512 12.064c0 7.104-5.664 11.904-12.512 11.904z m11.072-45.952a47.168 47.168 0 0 0-22.464 0.32c-15.104 4-26.304 15.744-26.304 34.688 0 23.712 18.24 36.192 38.208 36.192 20 0 37.184-12.48 37.184-36.192 0-19.52-10.88-31.36-26.624-35.008z m-1.664-80.416h7.872c7.584 0 12.48 3.584 12.48 9.152 0 6.24-4.544 9.856-12.48 9.856h-7.872v-19.008z m0.064 39.904h4.576l17.152 29.344h30.816l-19.072-31.936 0.864-0.544c9.152-5.536 13.76-14.272 13.76-25.984 0-20.256-13.76-31.872-37.856-31.872H294.496v90.336h27.328v-29.344z m386.464 68a10.816 10.816 0 0 1 11.04-8.864c6.528 0 10.144 3.808 10.624 8.864h-21.664z m11.616-28.704a34.048 34.048 0 0 0-25.696 10.304c-6.624 6.784-9.856 15.52-9.856 26.4 0 10.976 3.488 19.744 10.56 26.08 7.36 6.496 16.864 9.92 26.656 9.6 10.816 0 22.24-1.92 31.424-11.648l-16.672-15.68c-3.52 4.64-8.384 5.44-15.04 5.44-5.632 0-11.712-3.072-12.992-8.576h45.6l0.16-6.496a37.216 37.216 0 0 0-8.928-25.12c-5.888-6.912-14.4-10.304-25.216-10.304z m-134.816-76.192c6.432 0 10.112 3.776 10.56 8.8h-21.6a10.816 10.816 0 0 1 11.04-8.8z m2.24 52.544c10.752 0 22.24-1.92 31.36-11.648l-16.64-15.712c-3.52 4.608-8.384 5.472-15.04 5.472-5.632 0-11.744-3.136-12.96-8.64h45.6l0.128-6.496a37.216 37.216 0 0 0-8.928-25.088c-5.92-6.944-14.4-10.304-25.28-10.304-9.6-0.32-18.912 3.392-25.6 10.304-6.656 6.784-9.92 15.552-9.92 26.4 0 11.008 3.52 19.744 10.56 26.112 7.36 6.464 16.896 9.92 26.688 9.6z" fill="#F2E93C" p-id="7518"></path><path d="M635.488 551.616c-15.808 0-28.736-6.816-39.456-20.8l-1.92-2.464-28.192 28.416 1.28 1.824c13.728 20.16 38.08 32.224 65.056 32.224 17.92 0 32.576-4.416 44.768-13.536 11.744-8.16 18.688-21.6 18.496-35.904 0-28.256-16.768-45.536-49.792-51.296l-20.416-3.616c-10.912-1.856-10.912-6.08-10.912-7.488 0-3.84 3.744-7.904 14.272-7.904 12 0 22.656 5.792 32.512 17.728l1.952 2.336 28.192-30.08-1.6-1.92a75.04 75.04 0 0 0-59.328-27.264c-16.256 0-30.432 4.64-42.24 13.728-11.84 9.152-17.824 21.312-17.824 36.128 0 12.512 4.352 23.296 12.896 32.096 8.64 8.416 19.648 13.792 32.64 16l22.976 4.256c12.608 2.176 12.608 7.168 12.608 8.768 0 5.44-6.112 8.736-16 8.736m196.384 36.864v-154.24H787.52v55.616h-42.56V434.24h-44.064v154.24h44.064v-56.8h42.56v56.832h44.288m-268.896-114.88v-39.392H445.44v154.24h117.504v-39.392h-70.912v-20.032h67.328V490.88h-67.36v-17.28h70.912m-261.952 0v-39.392H190.656v154.24h44.064v-54.752h61.344v-38.144H234.72V473.6h66.24m67.296 29.632h-15.552V473.6h15.552c13.632 0 22.72 2.432 22.72 14.272 0 6.592-2.368 15.36-22.72 15.36z m66.784-14.912c0-34.4-23.456-54.112-64.48-54.112H308.608v154.24h44.064V542.4h11.04l27.392 46.08h50.72l-32.608-54.656c17.152-9.28 25.824-24.576 25.824-45.472v-0.032z" fill="#FFFFFE" p-id="7519"></path></svg>